<svg id="visual" viewBox="0 0 450 400" width="450" height="400" xmlns="http://www.w3.org/2000/svg" xmlns:xlink="http://www.w3.org/1999/xlink" version="1.1"><g transform="translate(242.83422411956903 195.04614933457535)"><path d="M108.2 -129.8C132.8 -108.3 140.3 -67.2 142 -29.2C143.8 8.8 139.9 43.7 125.9 77.1C111.8 110.6 87.7 142.7 55.8 155C23.9 167.3 -15.7 159.7 -52.5 145.7C-89.2 131.7 -123 111.1 -146.6 79.9C-170.2 48.8 -183.6 7 -175.9 -30C-168.2 -67.1 -139.4 -99.4 -106.5 -119.5C-73.7 -139.5 -36.9 -147.3 2.5 -150.2C41.8 -153.1 83.6 -151.3 108.2 -129.8" fill="#f8f6ee"></path></g></svg>